<svg xmlns="http://www.w3.org/2000/svg" width="125" height="125" viewBox="0 0 125 125">
  <g id="Group_429" data-name="Group 429" transform="translate(-1528 -3064)">
    <g id="Group_216" data-name="Group 216" transform="translate(1149 24)">
      <circle id="Ellipse_284" data-name="Ellipse 284" cx="62.5" cy="62.5" r="62.5" transform="translate(379 3040)" fill="#d7f8e0"/>
    </g>
    <g id="Group_357" data-name="Group 357" transform="translate(-626.178 2993.538)">
      <path id="Path_1439" data-name="Path 1439" d="M2183.06,223.621a18.26,18.26,0,0,0,3.542,2.088,44.98,44.98,0,0,0,10.251,3.1,105.741,105.741,0,0,0,24.323,1.72,91.875,91.875,0,0,0,18.581-2.437,36.635,36.635,0,0,0,8.107-2.9,16.749,16.749,0,0,0,2.437-1.531c.146.166.075.342.075.5,0,5.01-.007,10.02.011,15.03a2.844,2.844,0,0,1-.768,2.006,10.742,10.742,0,0,1-3.5,2.388,42.647,42.647,0,0,1-10.29,3.142,105.73,105.73,0,0,1-25.463,1.513,80.323,80.323,0,0,1-17.16-2.539,31.389,31.389,0,0,1-6.847-2.61,9.139,9.139,0,0,1-2.542-1.9,2.878,2.878,0,0,1-.764-2.008c.018-5.01.009-10.02.009-15.03Z" transform="translate(-0.042 -116.74)" fill="#6fbc84"/>
      <path id="Path_1440" data-name="Path 1440" d="M2183.033,421.827c4.181,2.939,8.925,4.189,13.76,5.141a105.46,105.46,0,0,0,25.294,1.688,91.584,91.584,0,0,0,17.3-2.3,33.944,33.944,0,0,0,9.348-3.489c.53-.31,1.031-.668,1.615-1.05,0,.214,0,.39,0,.566,0,4.958-.016,9.916.011,14.874a3.084,3.084,0,0,1-.975,2.338,13.007,13.007,0,0,1-4.082,2.529,46.762,46.762,0,0,1-10.5,2.97,108.167,108.167,0,0,1-25.221,1.274,81.4,81.4,0,0,1-15.7-2.3,32.157,32.157,0,0,1-7.719-2.891,9.427,9.427,0,0,1-2.228-1.642,3.061,3.061,0,0,1-.917-2.259C2183.046,432.149,2183.033,427.021,2183.033,421.827Z" transform="translate(-0.016 -294.524)" fill="#6fbc84"/>
      <path id="Path_1441" data-name="Path 1441" d="M2183.018,619.861c4.182,2.937,8.926,4.189,13.763,5.141a106.182,106.182,0,0,0,26.681,1.621,87,87,0,0,0,16.712-2.436,32.624,32.624,0,0,0,8.6-3.315c.513-.3,1-.651,1.568-1.022v.572c0,4.992-.01,9.984.006,14.977a2.869,2.869,0,0,1-.766,2.007,9.4,9.4,0,0,1-2.722,2,36.127,36.127,0,0,1-9.006,3.1,99.71,99.71,0,0,1-24.488,2.068,88.866,88.866,0,0,1-18.65-2.255,35.055,35.055,0,0,1-8.208-2.907,10.258,10.258,0,0,1-2.514-1.767,3.16,3.16,0,0,1-.986-2.386C2183.034,630.142,2183.018,625.032,2183.018,619.861Z" transform="translate(0 -472.166)" fill="#6fbc84"/>
      <path id="Path_1442" data-name="Path 1442" d="M2216.807,111.272a109.144,109.144,0,0,1-18.034-1.368,46.167,46.167,0,0,1-10.976-2.981,12.748,12.748,0,0,1-2.924-1.7,7.223,7.223,0,0,1-.755-.7,2.864,2.864,0,0,1,0-4.3,11.193,11.193,0,0,1,3.869-2.474,43.053,43.053,0,0,1,9.471-2.667,114.067,114.067,0,0,1,26.345-1.412,83.32,83.32,0,0,1,16.968,2.438,28.392,28.392,0,0,1,6.336,2.358,8.46,8.46,0,0,1,2.56,1.953,2.773,2.773,0,0,1,0,3.911,10.787,10.787,0,0,1-4.271,2.772,45.818,45.818,0,0,1-9.944,2.694A108.667,108.667,0,0,1,2216.807,111.272Z" transform="translate(-0.128)" fill="#6fbc84"/>
    </g>
  </g>
</svg>
