<svg xmlns="http://www.w3.org/2000/svg" width="125" height="125" viewBox="0 0 125 125">
  <g id="Group_431" data-name="Group 431" transform="translate(-942 -3508)">
    <g id="Group_218" data-name="Group 218" transform="translate(563 468)">
      <circle id="Ellipse_284" data-name="Ellipse 284" cx="62.5" cy="62.5" r="62.5" transform="translate(379 3040)" fill="#f1dfeb"/>
    </g>
    <g id="Group_359" data-name="Group 359" transform="translate(-65.627 4088.845)">
      <path id="Path_1445" data-name="Path 1445" d="M1154.925-536.261a21.579,21.579,0,0,0-23.638-19.2,21.5,21.5,0,0,0-19.4,21.042c-.025,2.884.867,6.149,2.7,10.1,4.182,9.026,9.747,17.2,15.56,25.218a3.925,3.925,0,0,0,6.637-.066q1.72-2.329,3.362-4.714c4.818-6.989,9.443-14.092,12.788-21.941A20.492,20.492,0,0,0,1154.925-536.261Zm-21.434,9.794a8.039,8.039,0,0,1-8.07-7.977,7.968,7.968,0,0,1,8.016-8,7.967,7.967,0,0,1,8.018,8A8.051,8.051,0,0,1,1133.491-526.467Z" transform="translate(-63.309)" fill="#bb76a4"/>
      <path id="Path_1446" data-name="Path 1446" d="M1070.143-320.373c-8.708-.1-17.261-1.119-25.433-4.349a26.18,26.18,0,0,1-9.475-5.947c-4.212-4.354-4.251-9.71-.087-14.1,3.228-3.4,7.349-5.3,11.666-6.837,1.2-.428,2.447-.715,3.657-1.116a.863.863,0,0,1,1.179.489c.264.484.531.97.841,1.424.448.659.261.921-.485,1.11a41.558,41.558,0,0,0-9.654,3.629,19.028,19.028,0,0,0-4.737,3.47c-3,3.106-3,6.586.024,9.688a23.532,23.532,0,0,0,8.69,5.265,62.825,62.825,0,0,0,18.982,3.8,76.076,76.076,0,0,0,20.874-1.5c5.047-1.1,9.921-2.67,14.218-5.665a14.724,14.724,0,0,0,2.346-2.023c2.882-3.084,2.86-6.5-.086-9.54a24.237,24.237,0,0,0-8.771-5.329,42.163,42.163,0,0,0-5.714-1.805c-.75-.182-.79-.482-.423-1.067,1.615-2.568.8-2.288,3.59-1.479a34.777,34.777,0,0,1,11.6,5.53,16.913,16.913,0,0,1,2.9,2.8,9.273,9.273,0,0,1-.174,12.553,24.809,24.809,0,0,1-10,6.613,64.356,64.356,0,0,1-19.947,4.192C1073.868-320.457,1072.01-320.333,1070.143-320.373Z" transform="translate(0 -160.762)" fill="#bb76a4"/>
    </g>
  </g>
</svg>
