<svg xmlns="http://www.w3.org/2000/svg" width="125" height="125" viewBox="0 0 125 125">
  <g id="Group_214" data-name="Group 214" transform="translate(-379 -3040)">
    <circle id="Ellipse_284" data-name="Ellipse 284" cx="62.5" cy="62.5" r="62.5" transform="translate(379 3040)" fill="#cee4ed"/>
    <g id="Layer_x0020_1" transform="translate(402.392 3071.203)">
      <path id="path23330" d="M92.246,82.93c4.054,0,7.482,3.627,7.651,8.1s-2.988,8.1-7.048,8.1-7.482-3.627-7.651-8.1S88.186,82.93,92.246,82.93Z" transform="translate(-67.086 -65.305)" fill="#6091a5"/>
      <path id="path23328" d="M100.282,94.041a5.739,5.739,0,0,1,5.422,5.735,5.252,5.252,0,0,1-4.988,5.741,5.745,5.745,0,0,1-5.422-5.741A5.247,5.247,0,0,1,100.282,94.041Z" transform="translate(-75.038 -74.055)" fill="#6091a5"/>
      <path id="path23326" d="M57.975,49.413l14.988,1.416.084.151c.771,1.41,1.482,2.88,2.175,4.337l-13.8-1.331a1.336,1.336,0,0,0-1.53,1.349V70.522a1.856,1.856,0,0,0,1.53,1.789l15.151,2.181a1.315,1.315,0,0,0,1.53-1.35V61.564c.41.892.813,1.789,1.241,2.663a9.4,9.4,0,0,0,1,1.717,1.661,1.661,0,0,0,.325.325,1.947,1.947,0,0,0,1.59.211V76.673a1.905,1.905,0,0,1-2.235,1.922l-22.055-3.1a2.669,2.669,0,0,1-2.235-2.548V51.329A1.931,1.931,0,0,1,57.975,49.413Z" transform="translate(-43.894 -38.903)" fill="#6091a5"/>
      <path id="path23324" d="M11.238,54.212V41.369a2.541,2.541,0,0,1,2.9-2.524L28.7,40.218a4.43,4.43,0,0,0-.886-1.072,3.787,3.787,0,0,0-1.584-.693,22.787,22.787,0,0,0-3.2-.428c-2.874-.241-5.771-.391-8.657-.53-2.988-.151-5.976-.277-8.964-.4-1.289-.054-2.578-.1-3.868-.163-.235-.012-.47-.024-.7-.048a1.079,1.079,0,0,1-.428-.133,2.226,2.226,0,0,0-.319.7,4.179,4.179,0,0,0,.06,1.988,14.546,14.546,0,0,0,2.139,4.38,98.72,98.72,0,0,0,5.97,8.621c1.651,2.018,2.2,1.976,2.862,1.8A1.157,1.157,0,0,0,11.238,54.212Z" transform="translate(0 -28.943)" fill="#6091a5"/>
      <path id="path23322" d="M8.181,7.54c4.452.181,13.037.542,17.651.934s5.247.819,6.608,3.307,3.446,7.036,4.783,9.964a30.762,30.762,0,0,0,2.458,4.91c.524.663.982.663,6.868-1.572s17.205-6.693,23.844-9.362,8.591-3.536,9.591-4.036,1.042-.626.952-1.934a35.049,35.049,0,0,0-.675-5.283,3.584,3.584,0,0,0-1.819-2.536A18.4,18.4,0,0,0,75.5.4C74.646.07,74.158.052,71.068.028S62.279-.014,59.122.016s-3.771.121-12.2,1.211-24.663,3.2-33.013,4.3S5.09,6.7,4.6,6.841a4.3,4.3,0,0,0-1.1.422C3.41,7.36,3.729,7.36,8.181,7.54Z" transform="translate(-2.75 0)" fill="#6091a5"/>
      <path id="path23320" d="M220.552,59.431c-.627.283-1.259.554-1.891.825-2.289.976-4.609,1.9-6.916,2.837q-5.575,2.232-11.169,4.434c-4.217,1.663-8.446,3.319-12.687,4.928-1.036.4-2.084.789-3.133,1.163-.627.217-1.259.44-1.9.614V84.57a2.767,2.767,0,0,1-.151.91c.59-.253,1.265-.572,2.072-.982,2.3-1.175,5.681-3.109,11.344-6.06s13.615-6.928,17.934-9.265,5.03-3.042,5.53-3.9a7.509,7.509,0,0,0,.91-3.247A25.45,25.45,0,0,0,220.552,59.431Z" transform="translate(-143.873 -46.8)" fill="#6091a5"/>
      <path id="path23318" d="M209.017,147.988a22.556,22.556,0,0,0,.8-4.2q-1.563.8-3.127,1.621-3.479,1.816-6.922,3.693c-1.331.723-2.657,1.452-4,2.151a8.151,8.151,0,0,0,2.181,2.422,6.859,6.859,0,0,0,4.337,1.211,5.78,5.78,0,0,0,3.982-1.861A13.068,13.068,0,0,0,209.017,147.988Z" transform="translate(-154.164 -113.23)" fill="#6091a5"/>
      <path id="path23316" d="M228.319,170.746a1.2,1.2,0,1,1-1.2,1.2A1.2,1.2,0,0,1,228.319,170.746Z" transform="translate(-178.851 -134.458)" fill="#6091a5"/>
      <path id="path23314" d="M213.585,187.271V200.88a19.184,19.184,0,0,1-9.567,0V188.361l.072.054a7.538,7.538,0,0,0,4.729,1.325,6.414,6.414,0,0,0,4.386-2.048C213.338,187.554,213.464,187.416,213.585,187.271Z" transform="translate(-160.659 -147.471)" fill="#6091a5"/>
      <path id="path23312" d="M192.482,252.212c4.8,1.928,9.813,1.633,14.952,0v6.067c-5.331,2.452-10.3,2.361-14.952,0Z" transform="translate(-151.575 -198.611)" fill="#6091a5"/>
      <path id="path23310" d="M275.726,218.962c-.91.464-1.9.976-2.94,1.518a2.892,2.892,0,0,0,.964-.139,3.969,3.969,0,0,0,1.657-1.03C275.515,219.2,275.623,219.082,275.726,218.962Z" transform="translate(-214.812 -172.427)" fill="#6091a5"/>
      <path id="path23308" d="M253.5,210.265l-1.608.831v1.976c.307.145.572.271.8.374.916.41,1.078.386,3.289-.693s6.47-3.211,9.434-4.687,4.633-2.277,5.386-2.711.6-.482-.38-.632-2.777-.41-3.741-.536c-.861-.108-1.066-.108-2.964.831-.4.59-.753,1.211-1.1,1.777-1.06,1.747-2.181,3.349-4.169,4.121a5.1,5.1,0,0,1-4.024-.06A4.539,4.539,0,0,1,253.5,210.265Z" transform="translate(-198.361 -160.754)" fill="#6091a5"/>
      <path id="path23306" d="M282.157,215.408c.042-.844.072-2.307.1-3.844a2.751,2.751,0,0,1-.283.175c-.608.349-1.259.663-1.891.976-1.175.584-2.349,1.163-3.524,1.747-3.145,1.56-6.283,3.151-9.44,4.687-.458.229-.94.47-1.422.669v3.59a4.872,4.872,0,0,0,1.922.307c.675-.03.892-.211,3.2-1.4s6.741-3.41,8.982-4.6S282.109,216.353,282.157,215.408Z" transform="translate(-209.231 -166.601)" fill="#6091a5"/>
      <path id="path23304" d="M288.571,172.483l14.916,1.813a.832.832,0,0,1,.7.8v22.675a.6.6,0,0,1-.7.627l-14.916-3.856a.88.88,0,0,1-.7-.8v-1.307c.235-.121.464-.241.7-.362,2.988-1.542,6.012-3.024,8.982-4.6a16.232,16.232,0,0,0,1.723-1,2.132,2.132,0,0,0,.819-.952,3.038,3.038,0,0,0,.139-.868c.048-.988.066-1.994.084-2.988a4.478,4.478,0,0,0-.157-1.9c-.2-.458-.867-.512-1.313-.584-1.247-.193-2.506-.374-3.759-.53a4.521,4.521,0,0,0-.7-.054,3.337,3.337,0,0,0-1.253.307c-.09.036-.181.072-.265.115a6.569,6.569,0,0,1,.578-.578,4.469,4.469,0,0,1,1.175-.729,3.467,3.467,0,0,1,1.615-.253,1.253,1.253,0,0,0,1.084-1.88,1.213,1.213,0,0,0-1.084-.621h-.319c-3.277,0-4.892,2.157-6.464,4.687-.319.518-.65,1.06-1,1.584l-.584.3V173.11A.616.616,0,0,1,288.571,172.483Z" transform="translate(-226.687 -135.822)" fill="#6091a5"/>
      <path id="path23302" d="M345.459,191.013a1.034,1.034,0,1,1-.873,1.018A.96.96,0,0,1,345.459,191.013Z" transform="translate(-271.353 -150.418)" fill="#6091a5"/>
      <path id="path23300" d="M295.9,184.585a1.03,1.03,0,1,1-.753,1.115A.951.951,0,0,1,295.9,184.585Z" transform="translate(-232.415 -145.351)" fill="#6091a5"/>
      <path id="path23298" d="M296.5,262.427a1.03,1.03,0,1,1-.753,1.114A.96.96,0,0,1,296.5,262.427Z" transform="translate(-232.884 -206.651)" fill="#6091a5"/>
      <path id="path23296" d="M345.847,272.915a1.034,1.034,0,1,1-.753,1.115A.96.96,0,0,1,345.847,272.915Z" transform="translate(-271.746 -214.91)" fill="#6091a5"/>
      <path id="path22667" d="M266.277,117.087a3.409,3.409,0,0,1,.03,3.3c-2.018,4.38-11.356,9.253-11.627,16.278-.181,4.789,3.687,5.115,5.9,2.855,2.56-2.614,3.536-7.56,8.2-7.56h.319a.639.639,0,0,1,0,1.277,4.073,4.073,0,0,0-1.856.3c-3.59,1.518-3.928,6.759-7.819,8.265a4.124,4.124,0,0,1-5.621-2.4,8.868,8.868,0,0,1,.2-5.789c2.4-6.675,11.681-11.548,11.422-15.043a2.168,2.168,0,0,0-.277-.892l.024-.018C265.541,117.466,265.909,117.28,266.277,117.087Z" transform="translate(-199.549 -92.203)" fill="#6091a5"/>
      <path id="path22669" d="M114.443,104.076a3.426,3.426,0,1,1-2.861,3.38A3.154,3.154,0,0,1,114.443,104.076Z" transform="translate(-87.868 -81.957)" fill="#6091a5"/>
    </g>
  </g>
</svg>
