<svg xmlns="http://www.w3.org/2000/svg" width="125" height="125" viewBox="0 0 125 125">
  <g id="Group_428" data-name="Group 428" transform="translate(-942 -3064)">
    <g id="Group_215" data-name="Group 215" transform="translate(563 24)">
      <circle id="Ellipse_284" data-name="Ellipse 284" cx="62.5" cy="62.5" r="62.5" transform="translate(379 3040)" fill="#f5bbbb"/>
    </g>
    <g id="Group_356" data-name="Group 356" transform="translate(-1320.742 2825.27)">
      <path id="Path_1431" data-name="Path 1431" d="M2411.452,361.75a30.2,30.2,0,0,1-13.117,6.639c-1.4.323-2.833.483-4.26.669-.637.083-.8-.116-.786-.738.042-1.527.016-3.056.013-4.584,0-1.23-.289-1.522-1.481-1.53-2.463-.016-2.463-.016-2.462,2.485,0,1.263-.013,2.527.007,3.79.007.414-.082.556-.545.51a30.135,30.135,0,0,1-16.83-7.137c-.38-.32-.309-.5.006-.8,1.056-1.021,2.087-2.068,3.123-3.11.921-.928.923-1.291.031-2.2-1.7-1.725-1.7-1.725-3.438.011-.831.831-1.677,1.648-2.488,2.5-.31.324-.5.385-.8-.012a40.509,40.509,0,0,1-3.763-5.838c-.2-.392-.071-.532.234-.762a5.416,5.416,0,0,0,1.509-7.415c-1.478-2.569-2.955-5.139-4.45-7.7a2.183,2.183,0,0,1-.311-1.486,29.687,29.687,0,0,1,6.518-15.166c.478-.592.719-.5,1.172-.019.985,1.049,2.02,2.052,3.048,3.06.72.707,1.157.7,1.878.021,1.907-1.8,1.907-1.825.036-3.694-.79-.789-1.552-1.609-2.378-2.358-.441-.4-.339-.6.058-.932a29.936,29.936,0,0,1,15.6-7c1.618-.221,1.62-.2,1.619,1.4,0,1.293-.008,2.586,0,3.879.009,1,.382,1.355,1.4,1.379,2.506.06,2.556.01,2.557-2.5,0-1.264.018-2.527-.006-3.79-.009-.467.133-.608.607-.574a30.191,30.191,0,0,1,16.665,6.44c.635.491.116.735-.122,1.015q-8.362,9.835-16.742,19.655-3.229,3.789-6.457,7.579c-1.182,1.385-2.058,1.408-3.374.093q-2.931-2.928-5.858-5.86c-.339-.34-.674-.725-1.2-.372s-.3.812-.115,1.254c1.478,3.482,2.931,6.975,4.438,10.445a5.213,5.213,0,0,0,9.191,1.1q11.675-15.3,23.315-30.636c.491-.647.736-.728,1.289-.055a31.2,31.2,0,0,1,5.721,10.434c.178.558.159.761-.494.925a5.434,5.434,0,0,0-3.433,8.135q2.005,3.518,4.05,7.013a1.419,1.419,0,0,1,.174,1.229,30.813,30.813,0,0,1-6.064,11.327c-.4.477-.61.422-1,.017-1.16-1.208-2.355-2.382-3.545-3.56-.774-.766-1.229-.758-2.008,0-1.813,1.774-1.815,1.776-.015,3.566C2409.245,359.571,2410.332,360.643,2411.452,361.75Z" transform="translate(-66.276 -37.631)" fill="#b15959"/>
      <path id="Path_1432" data-name="Path 1432" d="M2381.26,267.047c-11.928.4-21.453,5.315-28.343,15.156a2.2,2.2,0,0,1-2.238,1.223,1.922,1.922,0,0,1-1.612-1.445,2.235,2.235,0,0,1,.475-1.978,38.4,38.4,0,0,1,14.344-12.727c22.341-11.573,49.928,1.745,54.79,26.455.176.893.339,1.79.445,2.693.05.43.218.517.61.51,1.263-.022,2.527-.019,3.791,0a1.5,1.5,0,0,1,1.428,2.346q-3.132,5.511-6.341,10.978a1.484,1.484,0,0,1-2.7-.039q-3.174-5.436-6.29-10.906c-.711-1.25-.01-2.363,1.45-2.38,1.146-.013,2.293-.021,3.438.007.485.012.655-.081.583-.628-1.8-13.761-13.08-25.794-26.722-28.5A37.782,37.782,0,0,0,2381.26,267.047Z" transform="translate(-55.873)" fill="#b15959"/>
      <path id="Path_1433" data-name="Path 1433" d="M2289.066,468.961c-2.054,0-4.109.008-6.163,0-1.524-.008-2.2-1.107-1.446-2.42q3.092-5.423,6.236-10.816a1.508,1.508,0,0,1,2.792.026q3.119,5.356,6.2,10.739c.782,1.368.127,2.465-1.449,2.472C2293.176,468.967,2291.121,468.961,2289.066,468.961Z" transform="translate(0 -157.925)" fill="#b15959"/>
      <path id="Path_1434" data-name="Path 1434" d="M2496.975,675.236a34.882,34.882,0,0,1-5.812-.421,1.988,1.988,0,0,1-1.656-2.906,1.868,1.868,0,0,1,2.039-1.067,37.822,37.822,0,0,0,8.863.21,1.958,1.958,0,0,1,2.146,1.863,2.024,2.024,0,0,1-1.916,2.127A26.71,26.71,0,0,1,2496.975,675.236Z" transform="translate(-171.411 -335.843)" fill="#b15959"/>
      <path id="Path_1435" data-name="Path 1435" d="M2605.225,636.959a2.163,2.163,0,0,1-.971,1.945,37.56,37.56,0,0,1-8.364,4.458,2,2,0,1,1-1.446-3.723,36.715,36.715,0,0,0,7.655-4.109,2,2,0,0,1,3.127,1.429Z" transform="translate(-256.887 -306.469)" fill="#b15959"/>
      <path id="Path_1436" data-name="Path 1436" d="M2395.7,629.157a2.581,2.581,0,0,1,1.406.541,35.244,35.244,0,0,0,7.219,4.341,2,2,0,1,1-1.6,3.654,36.913,36.913,0,0,1-8.193-4.927,1.952,1.952,0,0,1-.657-2.363A1.978,1.978,0,0,1,2395.7,629.157Z" transform="translate(-92.708 -301.531)" fill="#b15959"/>
      <path id="Path_1437" data-name="Path 1437" d="M2333.266,545.974a1.831,1.831,0,0,1,1.646,1.162,37.669,37.669,0,0,0,4.383,7.7,1.967,1.967,0,0,1-.434,2.812,1.99,1.99,0,0,1-2.8-.484,36.153,36.153,0,0,1-4.713-8.215A2.034,2.034,0,0,1,2333.266,545.974Z" transform="translate(-41.173 -233.02)" fill="#b15959"/>
      <path id="Path_1438" data-name="Path 1438" d="M2679.921,585.563a1.939,1.939,0,0,1-1.679-2.949c.933-1.451,1.98-2.832,3.044-4.192a1.974,1.974,0,0,1,3.249,2.184,23.441,23.441,0,0,1-3.251,4.463A1.685,1.685,0,0,1,2679.921,585.563Z" transform="translate(-326.807 -259.18)" fill="#b15959"/>
    </g>
  </g>
</svg>
