<svg xmlns="http://www.w3.org/2000/svg" width="125" height="125" viewBox="0 0 125 125">
  <g id="Group_432" data-name="Group 432" transform="translate(-353 -3508)">
    <g id="Group_217" data-name="Group 217" transform="translate(-26 468)">
      <circle id="Ellipse_284" data-name="Ellipse 284" cx="62.5" cy="62.5" r="62.5" transform="translate(379 3040)" fill="#f9e5c3"/>
    </g>
    <g id="Group_358" data-name="Group 358" transform="translate(45.3 3454.319)">
      <path id="Path_1443" data-name="Path 1443" d="M430.783,119.7c-.028-5.253-3.564-8.732-8.828-8.745-6.068-.014-12.136,0-18.2,0-6.034,0-12.069.075-18.1-.023a8.616,8.616,0,0,0-8.943,8.9c.127,6.718.027,13.44.039,20.16a9.857,9.857,0,0,0,.17,2.042,8.166,8.166,0,0,0,7.982,6.587,3.417,3.417,0,0,1,2.611,1.1c1.149,1.175,2.408,2.244,3.571,3.408.49.49.791.443,1.25-.028,1.2-1.226,2.476-2.374,3.654-3.617a2.591,2.591,0,0,1,2.082-.84q11.982.038,23.964.006c5.23-.016,8.729-3.483,8.754-8.688Q430.832,129.834,430.783,119.7Zm-41.875-.308q9.2,0,18.391,0c1.164,0,2.331.044,3.492-.016.865-.044,1.278.191,1.191,1.137a14.09,14.09,0,0,0,0,2.361c.068.883-.321,1.106-1.138,1.1-3.664-.03-7.329-.013-10.993-.012q-5.291,0-10.582,0c-1.7,0-1.7,0-1.7-1.752,0-.48,0-.959,0-1.439C387.568,119.4,387.568,119.394,388.908,119.394Zm8.557,20.209c.006.572-.263.775-.82.766-1.369-.022-2.738-.007-4.106-.006-1.334,0-2.67-.027-4,.013-.69.02-1.009-.19-.979-.921.038-.923.03-1.849,0-2.771-.022-.671.269-.89.919-.885,2.7.023,5.407.02,8.11,0,.593,0,.894.194.882.823C397.45,137.618,397.455,138.611,397.466,139.6Zm16-2.883c-.047.957-.031,1.918-.008,2.876.013.577-.227.775-.794.773q-5.29-.021-10.581.005c-.65,0-.826-.264-.807-.858.03-.958.035-1.918,0-2.876-.024-.627.224-.846.837-.838,1.746.024,3.493.008,5.239.008,1.712,0,3.424.02,5.136-.011C413.169,135.787,413.5,135.975,413.468,136.721Zm5.352-4.577c-5.039-.041-10.079-.019-15.118-.019-5.005,0-10.011-.017-15.016.016-.84.006-1.2-.234-1.129-1.1.09-1.086-.439-2.447.219-3.2.682-.776,2.069-.273,3.141-.276q13.833-.035,27.666-.014c1.372,0,1.374.008,1.383,1.35,0,.686-.044,1.375.012,2.056C420.051,131.848,419.739,132.151,418.82,132.144Z" transform="translate(-23.475 -19.867)" fill="#b8914c"/>
      <path id="Path_1444" data-name="Path 1444" d="M383.358,134.225c0-.643-.283-.841-.869-.83-.892.017-1.786.04-2.675-.012-.835-.049-1.06.324-1.045,1.1.037,1.852-.034,3.707.031,5.557.034.968-.243,1.293-1.257,1.291q-19.295-.05-38.588,0c-1.027,0-1.334-.257-1.333-1.31q.047-27.477.025-54.954c0-1.392.007-1.4,1.41-1.4q18.831,0,37.662,0c1.961,0,1.984,0,2.054,1.987.023.651.224.93.9.9a25.558,25.558,0,0,1,2.674,0c.747.043,1.059-.191,1.016-.98-.057-1.06,0-2.126-.022-3.189a8.354,8.354,0,0,0-8.416-8.356c-11.113-.041-22.227-.015-33.34-.012a8.018,8.018,0,0,0-3.5.732,8.322,8.322,0,0,0-5.023,8.146q.02,16.62,0,33.24,0,16.466,0,32.932a11.662,11.662,0,0,0,.178,2.662,8.367,8.367,0,0,0,8.234,6.614c3.978.048,7.958.014,11.936.014,7.1,0,14.2.023,21.3-.01a8.282,8.282,0,0,0,8.578-7.96C383.452,145,383.338,139.611,383.358,134.225Zm-25.144,19.526a4.568,4.568,0,1,1,.018-9.136,4.568,4.568,0,0,1-.018,9.136Z" fill="#b8914c"/>
    </g>
  </g>
</svg>
