<svg xmlns="http://www.w3.org/2000/svg" width="179.998" height="180" viewBox="0 0 179.998 180">
  <g id="Group_361" data-name="Group 361" transform="translate(-1659.02 1247.214)">
    <path id="Path_1465" data-name="Path 1465" d="M1821.971-1247.21q-36.383-.012-72.75,0-36.749.011-73.489.007c-10.118.014-16.673,6.46-16.68,16.592q-.056,73.485-.007,146.97c.007,9.9,6.606,16.4,16.51,16.406q73.3.035,146.6.008c10.406-.008,16.85-6.452,16.85-16.783q.022-73.121.008-146.231C1839.006-1240.8,1832.547-1247.21,1821.971-1247.21Zm-19.407,48.621a277.041,277.041,0,0,0-69.646,83.7c-.3.539-.562,1.094-.858,1.633-5.113,9.37-11.455,10.56-19.5,3.384-11.921-10.619-19.592-24.226-25.977-38.556-2.69-6.03-.68-11.558,4.139-14.639,4.745-3.039,11.048-2.2,15.586,2.1,3.377,3.2,5.27,7.369,7.279,11.448,1.582,3.192,2.972,6.5,5.669,9.7,17.522-30.493,44.94-48.629,75.544-62.832,6.489-3.009,12.873-6.674,21.158-6.349C1811.152-1205.271,1806.791-1202.012,1802.565-1198.59Z" transform="translate(0)" fill="#41ad49"/>
    <path id="Path_1466" data-name="Path 1466" d="M1825.263-1195.517c-4.8,3.733-9.164,6.991-13.391,10.414a277.055,277.055,0,0,0-69.646,83.7c-.3.54-.562,1.094-.857,1.633-5.114,9.371-11.455,10.561-19.5,3.385-11.921-10.62-19.592-24.226-25.978-38.556-2.689-6.03-.68-11.558,4.139-14.639,4.744-3.038,11.048-2.2,15.586,2.105,3.377,3.2,5.27,7.369,7.28,11.449,1.582,3.191,2.971,6.5,5.668,9.7,17.522-30.493,44.94-48.628,75.544-62.832C1810.593-1192.177,1816.978-1195.843,1825.263-1195.517Z" transform="translate(-9.307 -13.486)" fill="#fdfdfd"/>
  </g>
</svg>
