<svg xmlns="http://www.w3.org/2000/svg" width="125" height="125" viewBox="0 0 125 125">
  <g id="Group_430" data-name="Group 430" transform="translate(-1528 -3508)">
    <g id="Group_219" data-name="Group 219" transform="translate(1149 468)">
      <circle id="Ellipse_284" data-name="Ellipse 284" cx="62.5" cy="62.5" r="62.5" transform="translate(379 3040)" fill="#e8edce"/>
    </g>
    <g id="Group_360" data-name="Group 360" transform="translate(-124.389 4177.481)">
      <path id="Path_1447" data-name="Path 1447" d="M1687.48-477.531a8.337,8.337,0,0,0-.726,6.081c.076.343.327.665.159,1.165-2.072-3.579-4.1-7.083-6.133-10.588-1.342-2.321-2.668-4.65-4.021-6.964a6.4,6.4,0,0,1,0-6.881c1.716-2.963,3.4-5.943,5.152-8.886.354-.6.318-.869-.3-1.167-.726-.345-1.4-.784-2.1-1.185.02-.067.043-.134.063-.2q6.713,0,13.426,0a.79.79,0,0,1,.824.408c2.2,3.871,4.431,7.73,6.512,11.764-.654-.374-1.328-.721-1.958-1.131-.459-.3-.674-.2-.938.26C1694.124-489.081,1690.755-483.333,1687.48-477.531Z" transform="translate(0 -106.924)" fill="#aebf52"/>
      <path id="Path_1448" data-name="Path 1448" d="M1756.262-407.987q-.047,8,0,16.009c0,.755-.233.93-.95.927-5.562-.027-11.121.018-16.683-.025a7.045,7.045,0,0,1-6.09-10.306c1.243-2.372,2.674-4.648,3.987-6.986.3-.535.714-.544,1.214-.544,2.912.011,5.822.007,8.734.007,2.948,0,5.9.02,8.845-.016C1756.047-408.933,1756.266-408.733,1756.262-407.987Z" transform="translate(-43.436 -182.381)" fill="#aebf52"/>
      <path id="Path_1449" data-name="Path 1449" d="M1766.668-638.223c-4.222,7.495-8.579,14.914-12.882,22.363-.739,1.277-.742,1.284-1.971.576-4.484-2.587-8.958-5.194-13.46-7.748-.7-.4-.733-.674-.345-1.339,3.024-5.176,6.037-10.364,8.987-15.583a7.272,7.272,0,0,1,7.038-3.992c6.635.112,13.274.034,19.908.034C1770.534-643.269,1768.339-641.186,1766.668-638.223Z" transform="translate(-48.115)" fill="#aebf52"/>
      <path id="Path_1450" data-name="Path 1450" d="M1863.822-616.3c-1.539-2.592-3.015-5.219-4.552-7.813a1.358,1.358,0,0,1,0-1.608c1.268-2.1,2.462-4.249,3.707-6.364a7.043,7.043,0,0,1,12.255-.081c1.384,2.294,2.7,4.63,4,6.968.332.591.594.73,1.176.307.625-.457,1.324-.809,1.991-1.207.054.054.11.108.166.161q-3.373,5.833-6.742,11.668a.738.738,0,0,1-.708.426c-4.422-.007-8.841,0-13.348-.224a18.024,18.024,0,0,1,1.747-1.048C1864.173-615.413,1864.164-615.72,1863.822-616.3Z" transform="translate(-142.202 -6.406)" fill="#aebf52"/>
      <path id="Path_1451" data-name="Path 1451" d="M1937.927-515.576c2.937,5.152-.34,10.81-6.254,10.846-1.118.007-2.238,0-3.355,0-1.006,0-2.021-.078-3.017.02a2.3,2.3,0,0,1-2.533-1.409c-2.71-4.876-5.528-9.692-8.357-14.5-.43-.735-.314-1.017.394-1.418q6.891-3.911,13.729-7.918c.67-.392.938-.345,1.33.349C1932.524-524.911,1935.257-520.261,1937.927-515.576Z" transform="translate(-185 -88.269)" fill="#aebf52"/>
      <path id="Path_1452" data-name="Path 1452" d="M1905.776-421.425c.374.435.011.681-.13.927-3.084,5.358-6.2,10.7-9.266,16.065a6.373,6.373,0,0,1-5.949,3.456c-3.4-.013-6.794.02-10.189-.018-.791-.009-1.048.2-.95,1.01a19.146,19.146,0,0,1,.02,2.325l-.195.04q-3.38-5.846-6.76-11.692a.8.8,0,0,1-.031-.918c2.253-3.855,4.489-7.721,6.953-11.56,0,.71.031,1.42-.009,2.128-.034.6.125.851.793.849,6.606-.022,13.211.011,19.817-.029A8.674,8.674,0,0,0,1905.776-421.425Z" transform="translate(-152.435 -172.396)" fill="#aebf52"/>
      <path id="Path_1453" data-name="Path 1453" d="M1687.48-477.531a8.337,8.337,0,0,0-.726,6.081c.076.343.327.665.159,1.165-2.072-3.579-4.1-7.083-6.133-10.588-1.342-2.321-2.668-4.65-4.021-6.964a6.4,6.4,0,0,1,0-6.881c1.716-2.963,3.4-5.943,5.152-8.886.354-.6.318-.869-.3-1.167-.726-.345-1.4-.784-2.1-1.185.02-.067.043-.134.063-.2q6.713,0,13.426,0a.79.79,0,0,1,.824.408c2.2,3.871,4.431,7.73,6.512,11.764-.654-.374-1.328-.721-1.958-1.131-.459-.3-.674-.2-.938.26C1694.124-489.081,1690.755-483.333,1687.48-477.531Z" transform="translate(0 -106.924)" fill="#aebf52"/>
      <path id="Path_1454" data-name="Path 1454" d="M1756.262-407.987q-.047,8,0,16.009c0,.755-.233.93-.95.927-5.562-.027-11.121.018-16.683-.025a7.045,7.045,0,0,1-6.09-10.306c1.243-2.372,2.674-4.648,3.987-6.986.3-.535.714-.544,1.214-.544,2.912.011,5.822.007,8.734.007,2.948,0,5.9.02,8.845-.016C1756.047-408.933,1756.266-408.733,1756.262-407.987Z" transform="translate(-43.436 -182.381)" fill="#aebf52"/>
      <path id="Path_1455" data-name="Path 1455" d="M1738.01-624.371c3.024-5.176,6.037-10.364,8.987-15.583a7.272,7.272,0,0,1,7.038-3.992c6.635.112,13.274.034,19.908.034-3.409.643-5.6,2.726-7.275,5.689-4.222,7.495-8.579,14.914-12.882,22.363-.739,1.277-.742,1.284-1.971.576-4.484-2.587-8.958-5.194-13.46-7.748C1737.654-623.43,1737.623-623.706,1738.01-624.371Z" transform="translate(-48.115)" fill="#aebf52"/>
      <path id="Path_1456" data-name="Path 1456" d="M1863.822-616.3c-1.539-2.592-3.015-5.219-4.552-7.813a1.358,1.358,0,0,1,0-1.608c1.268-2.1,2.462-4.249,3.707-6.364a7.043,7.043,0,0,1,12.255-.081c1.384,2.294,2.7,4.63,4,6.968.332.591.594.73,1.176.307.625-.457,1.324-.809,1.991-1.207.054.054.11.108.166.161q-3.373,5.833-6.742,11.668a.738.738,0,0,1-.708.426c-4.422-.007-8.841,0-13.348-.224a18.024,18.024,0,0,1,1.747-1.048C1864.173-615.413,1864.164-615.72,1863.822-616.3Z" transform="translate(-142.202 -6.406)" fill="#aebf52"/>
      <path id="Path_1457" data-name="Path 1457" d="M1914.8-522.035q6.891-3.911,13.729-7.918c.67-.392.938-.345,1.33.349,2.661,4.693,5.394,9.343,8.064,14.029,2.937,5.152-.34,10.81-6.254,10.846-1.118.007-2.238,0-3.355,0-1.006,0-2.021-.078-3.017.02a2.3,2.3,0,0,1-2.533-1.409c-2.71-4.876-5.528-9.692-8.357-14.5C1913.98-521.352,1914.1-521.635,1914.8-522.035Z" transform="translate(-185 -88.269)" fill="#aebf52"/>
      <path id="Path_1458" data-name="Path 1458" d="M1905.776-421.425c.374.435.011.681-.13.927-3.084,5.358-6.2,10.7-9.266,16.065a6.373,6.373,0,0,1-5.949,3.456c-3.4-.013-6.794.02-10.189-.018-.791-.009-1.048.2-.95,1.01a19.146,19.146,0,0,1,.02,2.325l-.195.04q-3.38-5.846-6.76-11.692a.8.8,0,0,1-.031-.918c2.253-3.855,4.489-7.721,6.953-11.56,0,.71.031,1.42-.009,2.128-.034.6.125.851.793.849,6.606-.022,13.211.011,19.817-.029A8.674,8.674,0,0,0,1905.776-421.425Z" transform="translate(-152.435 -172.396)" fill="#aebf52"/>
      <path id="Path_1459" data-name="Path 1459" d="M1773.943-643.912c-3.409.643-5.6,2.726-7.275,5.689-4.222,7.495-8.579,14.914-12.882,22.363-.739,1.277-.742,1.284-1.971.576-4.484-2.587-8.958-5.194-13.46-7.748-.7-.4-.733-.674-.345-1.339,3.024-5.176,6.037-10.364,8.987-15.583a7.272,7.272,0,0,1,7.038-3.992C1760.669-643.834,1767.309-643.912,1773.943-643.912Z" transform="translate(-48.115)" fill="#aebf52"/>
      <path id="Path_1460" data-name="Path 1460" d="M1905.646-420.5c-3.084,5.358-6.2,10.7-9.266,16.065a6.373,6.373,0,0,1-5.949,3.456c-3.4-.013-6.794.02-10.189-.018-.791-.009-1.048.2-.95,1.01a19.146,19.146,0,0,1,.02,2.325l-.195.04q-3.38-5.846-6.76-11.692a.8.8,0,0,1-.031-.918c2.253-3.855,4.489-7.721,6.953-11.56,0,.71.031,1.42-.009,2.128-.034.6.125.851.793.849,6.606-.022,13.211.011,19.817-.029a8.674,8.674,0,0,0,5.9-2.583C1906.15-420.99,1905.787-420.744,1905.646-420.5Z" transform="translate(-152.435 -172.396)" fill="#aebf52"/>
      <path id="Path_1461" data-name="Path 1461" d="M1700.333-493.988c-.654-.374-1.328-.721-1.958-1.131-.459-.3-.674-.2-.938.26-3.313,5.779-6.682,11.527-9.957,17.328a8.337,8.337,0,0,0-.726,6.081c.076.343.327.665.159,1.165-2.072-3.579-4.1-7.083-6.133-10.588-1.342-2.321-2.668-4.65-4.021-6.964a6.4,6.4,0,0,1,0-6.881c1.716-2.963,3.4-5.943,5.152-8.886.354-.6.318-.869-.3-1.167-.726-.345-1.4-.784-2.1-1.185.02-.067.043-.134.063-.2q6.713,0,13.426,0a.79.79,0,0,1,.824.408C1696.026-501.882,1698.252-498.022,1700.333-493.988Z" transform="translate(0 -106.924)" fill="#aebf52"/>
      <path id="Path_1462" data-name="Path 1462" d="M1931.673-504.73c-1.118.007-2.238,0-3.355,0-1.006,0-2.021-.078-3.017.02a2.3,2.3,0,0,1-2.533-1.409c-2.71-4.876-5.528-9.692-8.357-14.5-.43-.735-.314-1.017.394-1.418q6.891-3.911,13.729-7.918c.67-.392.938-.345,1.33.349,2.661,4.693,5.394,9.343,8.064,14.029C1940.863-510.424,1937.586-504.766,1931.673-504.73Z" transform="translate(-185 -88.269)" fill="#aebf52"/>
      <path id="Path_1463" data-name="Path 1463" d="M1756.262-391.979c0,.755-.233.93-.95.927-5.562-.027-11.121.018-16.683-.025a7.045,7.045,0,0,1-6.09-10.306c1.243-2.372,2.674-4.648,3.987-6.986.3-.535.714-.544,1.214-.544,2.912.011,5.822.007,8.734.007,2.948,0,5.9.02,8.845-.016.728-.011.948.188.943.934Q1756.214-399.984,1756.262-391.979Z" transform="translate(-43.436 -182.381)" fill="#aebf52"/>
      <path id="Path_1464" data-name="Path 1464" d="M1882.57-625.932q-3.373,5.833-6.742,11.668a.738.738,0,0,1-.708.426c-4.422-.007-8.841,0-13.348-.224a18.024,18.024,0,0,1,1.747-1.048c.654-.3.645-.609.3-1.185-1.539-2.592-3.015-5.219-4.552-7.813a1.358,1.358,0,0,1,0-1.608c1.268-2.1,2.462-4.249,3.707-6.364a7.043,7.043,0,0,1,12.255-.081c1.384,2.294,2.7,4.63,4,6.968.332.591.594.73,1.176.307.625-.457,1.324-.809,1.991-1.207C1882.458-626.04,1882.514-625.986,1882.57-625.932Z" transform="translate(-142.202 -6.406)" fill="#aebf52"/>
    </g>
  </g>
</svg>
